# xmcd
#
# Track frame offsets: 
#        225
#        11040
#        23422
#        37247
#        47177
#        67590
#        85302
#        104162
#        121242
#        136315
#
# Disc length: 2048 seconds
#
# Revision: 2
# Processed by: cddbd v1.5.1PL0 Copyright (c) Steve Scherf et al.
# Submitted via: ExactAudioCopy v0.95a5
#
DISCID=8207fd0a
DTITLE=The Good Brothers - Live Fast Love Hard
DYEAR=1990
DGENRE=Country
TTITLE0=Live Fast Love Hard Die Young
TTITLE1=Holdin' A Good Hand
TTITLE2=She Told Me So
TTITLE3=Why Baby Why?
TTITLE4=Fire Lane 13
TTITLE5=Bat Outta Hell
TTITLE6=We Don't Always See Eye to Eye
TTITLE7=Inquiring Minds
TTITLE8=Mom's Songs - You Are My Sunshine
TTITLE9=Honk on Bobo
EXTD=
EXTT0=
EXTT1=
EXTT2=
EXTT3=
EXTT4=
EXTT5=
EXTT6=
EXTT7=
EXTT8=
EXTT9=
PLAYORDER=
